<?xml version="1.0" standalone="no"?>
<!DOCTYPE svg PUBLIC "-//W3C//DTD SVG 20010904//EN"
 "http://www.w3.org/TR/2001/REC-SVG-20010904/DTD/svg10.dtd">
<svg version="1.0" xmlns="http://www.w3.org/2000/svg"
 width="203.000000pt" height="628.000000pt" viewBox="0 0 203.000000 628.000000"
 preserveAspectRatio="xMidYMid meet">
<metadata>
Created by potrace 1.16, written by Peter Selinger 2001-2019
</metadata>
<g transform="translate(0.000000,628.000000) scale(0.100000,-0.100000)"
fill="#000000" stroke="none">
<path d="M773 6180 c-42 -17 -56 -53 -51 -136 5 -102 19 -114 129 -114 l79 0
0 -55 c0 -54 0 -55 -29 -55 -48 0 -68 -35 -70 -124 -3 -101 15 -136 72 -136
26 0 27 -2 27 -55 0 -48 -3 -55 -19 -55 -11 0 -33 -11 -48 -24 -27 -23 -28
-29 -31 -125 l-4 -100 -197 -154 c-108 -86 -219 -178 -246 -206 -99 -102 -158
-232 -176 -387 -5 -49 -8 -913 -7 -2116 l3 -2033 23 -47 c30 -61 85 -116 142
-142 44 -21 57 -21 690 -21 640 0 645 0 690 22 73 34 132 99 151 166 14 47 12
4181 -2 4249 -6 29 -30 94 -54 144 -58 121 -130 195 -365 374 l-185 142 -5
105 c-5 100 -6 106 -33 129 -15 13 -37 24 -48 24 -16 0 -19 7 -19 55 l0 55 59
0 c33 0 63 -4 66 -10 3 -5 24 -10 46 -10 l40 0 -3 148 -3 147 -34 3 c-18 2
-38 -1 -44 -7 -6 -6 -37 -11 -69 -11 l-58 0 0 55 0 55 74 0 c41 0 82 3 91 6
28 11 45 60 45 129 0 60 -3 69 -29 96 l-29 29 -274 -1 c-150 0 -283 -4 -295
-9z m547 -490 l0 -50 -200 0 -200 0 0 50 0 50 200 0 200 0 0 -50z m-120 -400
l0 -80 -140 0 -140 0 0 80 0 80 140 0 140 0 0 -80z m238 -313 c219 -171 287
-238 331 -330 65 -133 61 13 61 -2134 l0 -1953 -767 3 -768 2 -3 1948 c-2
2165 -7 2013 65 2150 49 93 101 143 327 320 l189 147 184 0 183 0 198 -153z
m390 -4585 c-3 -76 -7 -94 -31 -130 -15 -23 -45 -51 -67 -62 -38 -19 -57 -20
-670 -20 -613 0 -632 1 -670 20 -22 11 -52 39 -67 62 -24 36 -28 54 -31 130
l-4 88 772 0 772 0 -4 -88z"/>
<path d="M1292 4828 c-29 -29 -13 -54 79 -123 189 -143 201 -169 208 -470 l6
-220 32 -3 c44 -4 45 5 41 260 l-3 213 -31 65 c-40 85 -73 122 -194 214 -100
78 -117 85 -138 64z"/>
<path d="M1591 3896 c-8 -9 -11 -51 -9 -122 3 -105 4 -109 26 -112 44 -7 52
12 52 124 0 92 -2 104 -19 114 -26 13 -36 13 -50 -4z"/>
</g>
</svg>
